<svg xmlns="http://www.w3.org/2000/svg" viewBox="0 0 192.11 124.2"><defs><style>.cls-1{fill:#2190cf;}.cls-2{font-size:9px;fill:#fff;font-family:Montserrat-Black, Montserrat;font-weight:800;}.cls-3{letter-spacing:0.01em;}.cls-4{letter-spacing:-0.01em;}.cls-5{letter-spacing:0.07em;}.cls-6{letter-spacing:0em;}.cls-7{letter-spacing:-0.01em;}.cls-8{letter-spacing:0.02em;}.cls-9{letter-spacing:-0.02em;}</style></defs><g id="Capa_2" data-name="Capa 2"><g id="Capa_1-2" data-name="Capa 1"><path class="cls-1" d="M0,25a206.13,206.13,0,0,1,192.11-2.42L143,110.24a105.63,105.63,0,0,0-15.07-5.67,109.27,109.27,0,0,0-12.07-2.79l-5.44-.93L97.31,124.2l-13.67-23-5.39,1a104.47,104.47,0,0,0-26.95,9.14Z"/><text class="cls-2" transform="translate(68.48 15.88) rotate(0.42)">Ciud<tspan class="cls-3" x="22.26" y="0">a</tspan><tspan x="28.1" y="0">danía</tspan><tspan x="2.92" y="10.8">ambiental</tspan><tspan class="cls-4" x="-23.13" y="21.6">C</tspan><tspan x="-16.52" y="21.6">u</tspan><tspan class="cls-5" x="-10.24" y="21.6">l</tspan><tspan x="-6.68" y="21.6">tu</tspan><tspan class="cls-6" x="3.74" y="21.6">r</tspan><tspan x="7.8" y="21.6">a </tspan><tspan class="cls-7" x="16.25" y="21.6">p</tspan><tspan x="22.43" y="21.6">a</tspan><tspan class="cls-8" x="28.18" y="21.6">r</tspan><tspan x="32.42" y="21.6">tici</tspan><tspan class="cls-7" x="47.96" y="21.6">p</tspan><tspan x="54.13" y="21.6">ati</tspan><tspan class="cls-9" x="66.96" y="21.6">v</tspan><tspan x="72.58" y="21.6">a</tspan></text></g></g></svg>