<svg xmlns="http://www.w3.org/2000/svg" viewBox="0 0 247.62 160.01"><defs><style>.cls-1{fill:#00933f;}.cls-2{font-size:12px;fill:#fff;font-family:Montserrat-Black, Montserrat;font-weight:800;}.cls-3{letter-spacing:-0.06em;}</style></defs><g id="Capa_2" data-name="Capa 2"><g id="Capa_1-2" data-name="Capa 1"><path class="cls-1" d="M0,31.19c4.55-2.43,9.2-4.75,13.9-6.92A263,263,0,0,1,123.67,0C127,0,130,0,132.9.12a265.31,265.31,0,0,1,114.72,30L183.4,142.46a133.74,133.74,0,0,0-34.93-11.16l-7-1.22L124.4,160l-5.17-8.85-12.18-20.92-7,1.27A135.13,135.13,0,0,0,68,141.69c-.91.43-1.82.86-2.73,1.31Z"/><text class="cls-2" transform="translate(73.8 31.15) rotate(0.16)"><tspan class="cls-3">V</tspan><tspan x="8.77" y="0">alor de la vida</tspan></text></g></g></svg>