<svg xmlns="http://www.w3.org/2000/svg" viewBox="0 0 192.11 124.2"><defs><style>.cls-1{fill:#2190cf;}.cls-2{font-size:9px;fill:#fff;font-family:Montserrat-Black, Montserrat;font-weight:800;}.cls-3{letter-spacing:-0.01em;}.cls-4{letter-spacing:0em;}.cls-5{letter-spacing:0em;}.cls-6{letter-spacing:0.01em;}.cls-7{letter-spacing:-0.01em;}.cls-8{letter-spacing:0.07em;}.cls-9{letter-spacing:0em;}</style></defs><g id="Capa_2" data-name="Capa 2"><g id="Capa_1-2" data-name="Capa 1"><path class="cls-1" d="M0,25a206.13,206.13,0,0,1,192.11-2.42L143,110.24a105.63,105.63,0,0,0-15.07-5.67,109.27,109.27,0,0,0-12.07-2.79l-5.44-.93L97.31,124.2l-13.67-23-5.39,1a104.47,104.47,0,0,0-26.95,9.14Z"/><text class="cls-2" transform="translate(43.31 15.7) rotate(0.42)"><tspan class="cls-3">T</tspan><tspan class="cls-4" x="5.8" y="0">r</tspan><tspan class="cls-5" x="9.86" y="0">ansdisciplinaried</tspan><tspan class="cls-6" x="93.34" y="0">a</tspan><tspan x="99.18" y="0">d</tspan><tspan x="11.05" y="10.8">In</tspan><tspan class="cls-7" x="20.52" y="10.8">t</tspan><tspan x="24.52" y="10.8">e</tspan><tspan class="cls-4" x="30.4" y="10.8">r</tspan><tspan class="cls-5" x="34.46" y="10.8">cu</tspan><tspan class="cls-8" x="46.28" y="10.8">l</tspan><tspan x="49.84" y="10.8">tu</tspan><tspan class="cls-9" x="60.26" y="10.8">r</tspan><tspan x="64.32" y="10.8">alid</tspan><tspan class="cls-6" x="82.29" y="10.8">a</tspan><tspan x="88.13" y="10.8">d</tspan><tspan class="cls-9" x="-5.04" y="21.6">R</tspan><tspan class="cls-6" x="1.62" y="21.6">a</tspan><tspan x="7.46" y="21.6">cionalid</tspan><tspan class="cls-6" x="46.31" y="21.6">a</tspan><tspan x="52.15" y="21.6">d ambiental</tspan></text></g></g></svg>