<svg xmlns="http://www.w3.org/2000/svg" viewBox="0 0 131.56 85.05"><defs><style>.cls-1{fill:#f7e824;}.cls-2{font-size:9px;fill:#575756;font-family:Montserrat-Black, Montserrat;font-weight:800;}.cls-3{letter-spacing:-0.01em;}.cls-4{letter-spacing:0em;}.cls-5{letter-spacing:-0.02em;}.cls-6{letter-spacing:0em;}.cls-7{letter-spacing:0.01em;}.cls-8{letter-spacing:-0.01em;}.cls-9{letter-spacing:-0.01em;}</style></defs><g id="Capa_2" data-name="Capa 2"><g id="Capa_1-2" data-name="Capa 1"><path class="cls-1" d="M0,17.15a141.14,141.14,0,0,1,131.56-1.66l-33.65,60a72.83,72.83,0,0,0-10.32-3.88,75.79,75.79,0,0,0-8.26-1.91l-3.73-.64-9,16L57.28,69.3,53.59,70a71.23,71.23,0,0,0-18.46,6.26Z"/><text class="cls-2" transform="translate(21.56 22.04)"><tspan class="cls-3">C</tspan><tspan class="cls-4" x="6.56" y="0">on</tspan><tspan class="cls-5" x="18.98" y="0">te</tspan><tspan class="cls-6" x="28.73" y="0">xtualiz</tspan><tspan class="cls-7" x="61.7" y="0">a</tspan><tspan x="67.54" y="0">ción</tspan><tspan x="6.15" y="10.8">t</tspan><tspan class="cls-8" x="10.29" y="10.8">r</tspan><tspan x="14.35" y="10.8">an</tspan><tspan class="cls-9" x="26.42" y="10.8">s</tspan><tspan class="cls-3" x="31.41" y="10.8">v</tspan><tspan x="37.07" y="10.8">ersalid</tspan><tspan class="cls-7" x="70.1" y="10.8">a</tspan><tspan class="cls-6" x="75.94" y="10.8">d</tspan></text></g></g></svg>