<svg xmlns="http://www.w3.org/2000/svg" viewBox="0 0 247.58 160.04"><defs><style>.cls-1{fill:#00933f;}.cls-2{font-size:12px;fill:#fff;font-family:Montserrat-Black, Montserrat;font-weight:800;}.cls-3{letter-spacing:-0.01em;}.cls-4{letter-spacing:0.01em;}.cls-5{letter-spacing:0em;}</style></defs><g id="Capa_2" data-name="Capa 2"><g id="Capa_1-2" data-name="Capa 1"><path class="cls-1" d="M0,30.72c2.57-1.35,5.12-2.65,7.66-3.88a265.08,265.08,0,0,1,219.75-5.78c6.81,2.9,13.56,6.11,20.17,9.6L182.91,142.77q-2.94-1.41-5.92-2.69a134.67,134.67,0,0,0-29-8.66l-7-1.25L123.84,160,106.6,130.21l-7,1.26A137.43,137.43,0,0,0,64.75,142.8Z"/><text class="cls-2" transform="matrix(1, 0, 0, 1, 82.71, 36.05)"><tspan class="cls-3">C</tspan><tspan x="8.75" y="0">omplejid</tspan><tspan class="cls-4" x="65.89" y="0">a</tspan><tspan class="cls-5" x="73.68" y="0">d</tspan></text></g></g></svg>