<?xml version="1.0" encoding="UTF-8" standalone="no"?>
<!DOCTYPE svg PUBLIC "-//W3C//DTD SVG 1.1//EN" "http://www.w3.org/Graphics/SVG/1.1/DTD/svg11.dtd">
<svg width="100%" height="100%" viewBox="0 0 48 48" version="1.1" xmlns="http://www.w3.org/2000/svg" xmlns:xlink="http://www.w3.org/1999/xlink" xml:space="preserve" xmlns:serif="http://www.serif.com/" style="fill-rule:evenodd;clip-rule:evenodd;stroke-linejoin:round;stroke-miterlimit:2;">
    <g transform="matrix(1,0,0,1,-811.768,-245.668)">
        <g id="PlayInit.svg" transform="matrix(1,0,0,1,835.768,269.668)">
            <g transform="matrix(1,0,0,1,-24,-24)">
                <path d="M19.15,32.5L32.5,24L19.15,15.5L19.15,32.5ZM24,44C21.267,44 18.683,43.475 16.25,42.425C13.817,41.375 11.692,39.942 9.875,38.125C8.058,36.308 6.625,34.183 5.575,31.75C4.525,29.317 4,26.733 4,24C4,21.267 4.525,18.683 5.575,16.25C6.625,13.817 8.058,11.692 9.875,9.875C11.692,8.058 13.817,6.625 16.25,5.575C18.683,4.525 21.267,4 24,4C26.733,4 29.317,4.525 31.75,5.575C34.183,6.625 36.308,8.058 38.125,9.875C39.942,11.692 41.375,13.817 42.425,16.25C43.475,18.683 44,21.267 44,24C44,26.733 43.475,29.317 42.425,31.75C41.375,34.183 39.942,36.308 38.125,38.125C36.308,39.942 34.183,41.375 31.75,42.425C29.317,43.475 26.733,44 24,44ZM24,24L24,24ZM24,41C28.667,41 32.667,39.333 36,36C39.333,32.667 41,28.667 41,24C41,19.333 39.333,15.333 36,12C32.667,8.667 28.667,7 24,7C19.333,7 15.333,8.667 12,12C8.667,15.333 7,19.333 7,24C7,28.667 8.667,32.667 12,36C15.333,39.333 19.333,41 24,41Z" style="fill:rgb(235,34,0);fill-rule:nonzero;stroke:rgb(235,34,0);stroke-width:1px;"/>
            </g>
        </g>
    </g>
</svg>
